<svg width="20" height="20" viewBox="0 0 20 20" fill="none" xmlns="http://www.w3.org/2000/svg">
<path d="M9.78469 0.140552C9.87277 -0.046851 10.1272 -0.0468507 10.2153 0.140553L13.1195 6.32022C13.1544 6.39464 13.222 6.44622 13.3002 6.45815L19.7942 7.44911C19.9911 7.47916 20.0697 7.73331 19.9272 7.87918L15.2282 12.6894C15.1716 12.7473 15.1458 12.8308 15.1591 12.9126L16.2684 19.7047C16.3021 19.9107 16.0962 20.0677 15.9201 19.9705L10.1117 16.7637C10.0418 16.7251 9.95822 16.7251 9.88827 16.7637L4.07994 19.9705C3.9038 20.0677 3.69793 19.9107 3.73157 19.7047L4.84086 12.9126C4.85422 12.8308 4.8284 12.7473 4.77181 12.6894L0.0727691 7.87918C-0.0697331 7.73331 0.00890155 7.47916 0.205835 7.44911L6.69975 6.45815C6.77795 6.44622 6.84555 6.39464 6.88053 6.32022L9.78469 0.140552Z" fill="#00183C"/>
</svg>
